<?xml version="1.0" standalone="no"?>
<!DOCTYPE svg PUBLIC "-//W3C//DTD SVG 20010904//EN"
 "http://www.w3.org/TR/2001/REC-SVG-20010904/DTD/svg10.dtd">
<svg version="1.0" xmlns="http://www.w3.org/2000/svg"
 width="512.000000pt" height="512.000000pt" viewBox="0 0 512.000000 512.000000"
 preserveAspectRatio="xMidYMid meet">
<metadata>
Created by potrace 1.11, written by Peter Selinger 2001-2013
</metadata>
<g transform="translate(0.000000,512.000000) scale(0.100000,-0.100000)"
fill="#000000" stroke="none">
<path d="M182 4937 c-16 -17 -22 -35 -22 -68 1 -24 36 -320 78 -658 l77 -615
-77 -805 c-42 -443 -77 -826 -78 -851 0 -25 34 -184 77 -356 l77 -312 -77
-503 c-43 -277 -77 -518 -77 -535 0 -40 36 -74 79 -74 17 0 235 34 483 75
l452 76 76 -76 c67 -67 79 -75 114 -75 39 0 1265 125 1324 135 l32 6 0 -49 c0
-38 5 -53 23 -70 l23 -22 1075 0 1076 0 21 23 22 23 0 635 0 636 -23 21 c-23
21 -30 22 -280 22 l-257 0 0 80 0 80 98 0 c150 0 142 -18 142 321 0 350 22
319 -223 319 -175 0 -177 0 -181 23 -7 30 -147 1594 -146 1631 0 16 70 220
155 455 85 234 155 440 155 457 0 19 -9 39 -23 52 -31 29 -35 29 -747 -16
l-585 -37 -368 40 -368 39 -162 -40 -162 -40 -800 38 c-988 45 -975 45 -1003
15z m943 -182 c418 -19 793 -35 833 -35 49 0 114 10 194 30 66 17 122 30 123
28 2 -2 27 -52 57 -113 l55 -110 -33 -100 c-19 -54 -34 -102 -34 -106 0 -11
153 -60 161 -51 14 15 79 229 79 260 0 19 -19 71 -46 123 -25 50 -44 92 -42
94 2 2 116 -10 253 -26 138 -15 293 -28 345 -28 52 0 325 15 605 33 281 18
512 31 514 30 2 -2 -58 -172 -133 -379 -106 -294 -136 -386 -136 -425 0 -44
130 -1505 144 -1617 l6 -43 -495 0 c-482 0 -496 -1 -515 -20 -19 -19 -20 -33
-20 -300 0 -342 -10 -320 140 -320 l100 0 0 -80 0 -80 -260 0 c-247 0 -261 -1
-280 -20 -19 -19 -20 -33 -20 -525 l0 -504 -32 -5 c-18 -3 -316 -35 -662 -71
l-629 -66 -77 76 c-73 70 -80 75 -121 75 -24 0 -227 -31 -451 -69 -394 -65
-407 -67 -403 -47 14 63 135 881 135 911 0 20 -27 144 -60 277 -34 132 -59
242 -57 245 3 2 41 -5 85 -16 44 -12 84 -21 89 -21 13 0 47 150 37 160 -5 4
-62 20 -127 36 l-118 28 6 41 c3 22 35 351 70 730 36 380 67 711 71 736 l5 45
80 26 80 26 101 -34 c56 -19 105 -34 109 -34 11 0 60 153 51 161 -16 15 -229
79 -263 79 -19 0 -63 -9 -98 -21 -34 -12 -64 -19 -66 -17 -4 4 -135 1032 -135
1057 0 14 -98 17 785 -24z"/>
<path d="M2458 3462 l-1018 -1017 0 -320 0 -320 -272 -272 -273 -273 63 -62
62 -63 273 273 272 272 320 0 320 0 446 447 c245 247 473 482 506 523 182 226
318 499 388 780 47 187 55 282 55 659 0 338 -1 352 -20 371 -14 14 -33 20 -62
20 l-43 0 -1017 -1018z"/>
<path d="M1197 1115 c-84 -57 -125 -90 -121 -98 22 -36 85 -127 90 -127 3 0
45 27 94 60 49 33 94 60 100 60 6 0 54 -29 108 -65 73 -49 105 -65 132 -65 27
0 59 16 132 65 54 36 102 65 108 65 6 0 54 -29 108 -65 73 -49 105 -65 132
-65 27 0 59 16 132 65 54 36 102 65 108 65 6 0 51 -27 100 -60 49 -33 91 -60
94 -60 5 0 68 91 90 127 4 8 -37 41 -121 98 -162 108 -164 108 -295 20 -54
-36 -102 -65 -108 -65 -6 0 -54 29 -108 65 -73 49 -105 65 -132 65 -27 0 -59
-16 -132 -65 -54 -36 -102 -65 -108 -65 -6 0 -54 29 -108 65 -131 88 -133 88
-295 -20z"/>
</g>
</svg>
